<svg xmlns="http://www.w3.org/2000/svg" viewBox="0 0 512 512" width="512" height="512">
	<style>
		tspan { white-space:pre }
		.shp0 { fill: #0e357a } 
	</style>
	<g id="Background">
		<path id="Path 2" class="shp0" d="M244.37 99.35C238.32 102.83 227.29 109.19 219.87 113.5C212.44 117.8 205.02 122.08 203.37 123C201.72 123.93 198.46 125.88 196.12 127.35C193.78 128.81 191.64 130.01 191.37 130.01C191.09 130.01 182.66 134.79 172.62 140.63C162.58 146.47 152.79 152.14 150.87 153.23C148.94 154.32 143.35 157.53 138.43 160.36C133.51 163.19 128.23 166.75 126.68 168.26C125.13 169.77 123.62 172.47 123.32 174.26C123.02 176.05 122.91 210.36 123.07 250.51C123.34 317.05 123.52 323.73 125.06 326.01C125.98 327.38 131.61 331.41 137.56 334.97C143.5 338.52 150.17 342.39 152.37 343.57C154.57 344.76 158.17 346.74 160.37 347.97C162.57 349.21 164.82 350.63 165.37 351.12C165.92 351.61 167.16 351.79 168.12 351.51C169.77 351.04 169.87 346.53 169.87 275.01C169.87 200.68 169.91 198.94 171.87 196.01C172.97 194.36 175.22 192.33 176.87 191.51C178.52 190.68 181.44 190.01 183.37 190.01C185.97 190.01 191.17 192.49 203.62 199.66C212.83 204.97 238.56 220.11 242.04 222.07C245.52 224.03 252.87 228.27 258.37 231.49C263.87 234.72 270.84 238.77 273.87 240.51C276.89 242.24 283.87 246.29 289.37 249.51C294.87 252.72 302.91 257.41 307.23 259.93C313.52 263.59 315.42 264.29 316.73 263.4C318.15 262.44 318.45 258.79 318.99 235.9C319.33 221.39 319.67 190.72 319.74 167.76L319.87 126.01C314.83 122.38 310.22 119.6 306.37 117.49C302.52 115.39 298.02 112.89 296.37 111.95C294.72 111 286.62 106.35 278.37 101.6C266.26 94.63 262.6 92.97 259.37 93C256.32 93.02 252.76 94.53 244.37 99.35ZM346.18 144.36C346.08 146.48 346.01 180.05 346.02 218.96C346.05 279.86 345.84 290.23 344.54 293.46C343.7 295.53 341.57 298.26 339.79 299.54C337.14 301.43 335.63 301.78 331.55 301.42C327.36 301.04 323.31 299.06 306.55 289.18C295.55 282.7 282.95 275.39 278.55 272.94C274.15 270.49 270.1 268.13 269.55 267.69C269 267.25 265.63 265.22 262.05 263.18C258.48 261.14 254.2 258.68 252.55 257.71C250.9 256.75 246.63 254.27 243.05 252.21C239.48 250.15 235.2 247.66 233.55 246.68C231.9 245.7 223.8 241.02 215.55 236.29C207.3 231.55 200.08 227.69 199.5 227.7C198.92 227.7 197.9 228.28 197.23 228.96C196.3 229.92 196.01 246.28 196 298.71C195.99 363.18 196.09 367.31 197.77 368.8C198.75 369.68 201.58 371.52 204.05 372.89C206.53 374.27 215.3 379.3 223.55 384.08C231.8 388.85 238.66 392.75 238.8 392.74C238.94 392.72 242.54 394.78 246.8 397.3C253.17 401.08 255.44 401.9 259.55 401.93C262.77 401.95 265.79 401.26 268.05 399.97C269.98 398.86 276.05 395.37 281.55 392.2C287.05 389.02 294.48 384.77 298.05 382.75C301.63 380.73 316.7 372.08 331.55 363.52C346.4 354.97 360.91 346.57 363.8 344.84C366.69 343.12 369.28 341.71 369.55 341.71C369.83 341.71 375.06 338.68 381.19 334.96C388.43 330.58 392.81 327.25 393.69 325.46C394.8 323.22 395.05 308.91 395.05 247.71C395.05 186.54 394.8 172.21 393.69 169.96C392.83 168.22 388.9 165.16 382.94 161.61C377.78 158.52 368.15 152.82 361.55 148.93C354.95 145.04 348.83 141.55 347.96 141.18C346.67 140.63 346.33 141.24 346.18 144.36Z" />
	</g>
</svg>